<svg width="459" height="596" viewBox="0 0 459 596" fill="none" xmlns="http://www.w3.org/2000/svg">
<path d="M28.2853 277.778L28.3293 277.725L28.3608 277.66L28.3609 277.659L28.361 277.659L28.3612 277.659L28.3622 277.657L28.37 277.641C28.3775 277.626 28.3897 277.602 28.4069 277.569C28.4414 277.503 28.496 277.401 28.5732 277.265C28.7276 276.992 28.9727 276.581 29.329 276.039C30.0417 274.955 31.1994 273.349 32.9668 271.287C36.5019 267.164 42.475 261.219 52.2022 253.986C61.9595 246.731 68.3511 242.779 72.6851 241.613C74.8418 241.032 76.4419 241.156 77.6803 241.853C78.9131 242.548 79.8469 243.845 80.6184 245.774C81.3749 247.665 81.5314 249.485 81.0684 251.302C80.5999 253.14 79.4782 255.049 77.5643 257.051C73.7298 261.061 66.8694 265.285 56.374 269.969C45.7984 274.688 35.947 283.89 30.6298 295.996C25.2965 308.14 24.5553 323.141 32.1322 339.306C34.0395 343.375 37.6694 348.451 42.5259 354.204C47.3899 359.966 53.5111 366.437 60.4273 373.295C74.2602 387.011 91.2924 402.292 107.85 416.568C124.409 430.845 140.499 444.122 152.448 453.829C158.423 458.683 163.363 462.644 166.81 465.392C168.533 466.766 169.883 467.837 170.802 468.564C171.261 468.928 171.613 469.205 171.85 469.392L172.01 469.518L172.01 484.381C149.498 462.813 127.08 443.462 106.516 425.711C104.802 424.232 103.101 422.764 101.414 421.307C79.2705 402.176 59.5295 384.907 44.4592 368.67C29.3753 352.418 19.0429 337.274 15.6213 322.423C13.9152 315.017 13.9276 307.685 15.9302 300.304C17.9353 292.915 21.9463 285.438 28.2853 277.778Z" fill="#406DA0" stroke="#281431"/>
<rect x="84.0067" y="254.09" width="9.2119" height="2.58438" transform="rotate(72.9246 84.0067 254.09)" fill="black" stroke="black"/>
<rect x="76.4391" y="242.129" width="24.0694" height="12.5806" transform="rotate(-11.3847 76.4391 242.129)" fill="#406DA0" stroke="black"/>
<path d="M133.744 238.557L147.663 242.385C148.994 242.751 149.777 244.127 149.411 245.458L149.282 245.924C148.916 247.255 147.54 248.038 146.209 247.672L132.29 243.844L133.744 238.557Z" fill="white" stroke="black"/>
<rect x="83.6784" y="261.122" width="22.7833" height="2.58438" transform="rotate(-13.84 83.6784 261.122)" fill="black" stroke="black"/>
<path d="M126.455 253.283C123.824 254.953 121.935 256.611 120.374 258.027C120.232 258.156 120.094 258.282 119.958 258.406C118.582 259.657 117.488 260.652 116.313 261.295C115.06 261.981 113.707 262.266 111.814 261.929C109.893 261.586 107.416 260.603 103.944 258.724C97.0373 254.987 94.6403 251.321 94.4277 247.745C94.2109 244.098 96.2357 240.361 98.6725 236.409C101.1 232.472 102.633 230.581 105.497 229.9C106.96 229.552 108.803 229.514 111.337 229.746C113.869 229.979 117.051 230.478 121.18 231.181C129.31 232.566 133.023 236.563 133.582 240.847C134.147 245.178 131.532 250.061 126.455 253.283Z" fill="#406DA0" stroke="black"/>
<ellipse cx="287" cy="584.5" rx="172" ry="11.5" fill="black" fill-opacity="0.6"/>
<path d="M152 538C152 533.582 155.582 530 160 530H397C401.418 530 405 533.582 405 538V583H152V538Z" fill="#406DA0"/>
<path d="M171 183C171 179.686 173.686 177 177 177H380C383.314 177 386 179.686 386 183V539H171V183Z" fill="#EEEE32"/>
<path d="M177 177.5H380C383.038 177.5 385.5 179.962 385.5 183V538.5H171.5V183C171.5 179.962 173.962 177.5 177 177.5Z" stroke="black" stroke-opacity="0.9"/>
<rect x="211.5" y="218.5" width="135" height="57" fill="#565656" stroke="white"/>
<path d="M213 274H218.824C218.824 274 217.368 230.707 220.279 227.914C223.191 225.121 345 226.517 345 226.517V220H213V274Z" fill="black" fill-opacity="0.7"/>
<path d="M152 225C152 222.239 154.239 220 157 220H171V302H157C154.239 302 152 299.761 152 297V225Z" fill="white"/>
<path d="M157 220.5H170.5V301.5H157C154.515 301.5 152.5 299.485 152.5 297V225C152.5 222.515 154.515 220.5 157 220.5Z" stroke="black" stroke-opacity="0.6"/>
<rect x="213" y="326" width="134" height="154" rx="4" fill="white" fill-opacity="0.9"/>
<path d="M234.328 231.462C235 231.462 235.618 231.576 236.182 231.804C236.758 232.02 237.25 232.368 237.658 232.848C238.078 233.316 238.402 233.922 238.63 234.666C238.87 235.398 238.99 236.28 238.99 237.312C238.99 238.332 238.864 239.214 238.612 239.958C238.36 240.69 238.018 241.296 237.586 241.776C237.154 242.256 236.656 242.616 236.092 242.856C235.528 243.084 234.934 243.198 234.31 243.198C233.638 243.198 233.014 243.09 232.438 242.874C231.874 242.646 231.382 242.292 230.962 241.812C230.542 241.332 230.212 240.72 229.972 239.976C229.744 239.232 229.63 238.344 229.63 237.312C229.63 236.328 229.756 235.47 230.008 234.738C230.272 233.994 230.62 233.382 231.052 232.902C231.484 232.422 231.982 232.062 232.546 231.822C233.122 231.582 233.716 231.462 234.328 231.462ZM232.096 237.312C232.096 238.116 232.156 238.782 232.276 239.31C232.396 239.838 232.558 240.258 232.762 240.57C232.978 240.882 233.218 241.104 233.482 241.236C233.758 241.356 234.04 241.416 234.328 241.416C234.616 241.416 234.892 241.35 235.156 241.218C235.432 241.086 235.666 240.864 235.858 240.552C236.062 240.24 236.224 239.82 236.344 239.292C236.464 238.764 236.524 238.104 236.524 237.312C236.524 236.508 236.464 235.848 236.344 235.332C236.224 234.804 236.062 234.39 235.858 234.09C235.666 233.778 235.432 233.562 235.156 233.442C234.892 233.31 234.616 233.244 234.328 233.244C234.04 233.244 233.758 233.31 233.482 233.442C233.218 233.562 232.978 233.778 232.762 234.09C232.558 234.402 232.396 234.822 232.276 235.35C232.156 235.866 232.096 236.52 232.096 237.312ZM240.006 241.722C240.006 241.518 240.042 241.326 240.114 241.146C240.198 240.966 240.306 240.81 240.438 240.678C240.57 240.546 240.72 240.444 240.888 240.372C241.068 240.3 241.254 240.264 241.446 240.264C241.83 240.264 242.16 240.402 242.436 240.678C242.724 240.954 242.868 241.302 242.868 241.722C242.868 242.178 242.724 242.538 242.436 242.802C242.16 243.066 241.83 243.198 241.446 243.198C241.062 243.198 240.726 243.066 240.438 242.802C240.15 242.538 240.006 242.178 240.006 241.722ZM248.689 231.462C249.361 231.462 249.979 231.576 250.543 231.804C251.119 232.02 251.611 232.368 252.019 232.848C252.439 233.316 252.763 233.922 252.991 234.666C253.231 235.398 253.351 236.28 253.351 237.312C253.351 238.332 253.225 239.214 252.973 239.958C252.721 240.69 252.379 241.296 251.947 241.776C251.515 242.256 251.017 242.616 250.453 242.856C249.889 243.084 249.295 243.198 248.671 243.198C247.999 243.198 247.375 243.09 246.799 242.874C246.235 242.646 245.743 242.292 245.323 241.812C244.903 241.332 244.573 240.72 244.333 239.976C244.105 239.232 243.991 238.344 243.991 237.312C243.991 236.328 244.117 235.47 244.369 234.738C244.633 233.994 244.981 233.382 245.413 232.902C245.845 232.422 246.343 232.062 246.907 231.822C247.483 231.582 248.077 231.462 248.689 231.462ZM246.457 237.312C246.457 238.116 246.517 238.782 246.637 239.31C246.757 239.838 246.919 240.258 247.123 240.57C247.339 240.882 247.579 241.104 247.843 241.236C248.119 241.356 248.401 241.416 248.689 241.416C248.977 241.416 249.253 241.35 249.517 241.218C249.793 241.086 250.027 240.864 250.219 240.552C250.423 240.24 250.585 239.82 250.705 239.292C250.825 238.764 250.885 238.104 250.885 237.312C250.885 236.508 250.825 235.848 250.705 235.332C250.585 234.804 250.423 234.39 250.219 234.09C250.027 233.778 249.793 233.562 249.517 233.442C249.253 233.31 248.977 233.244 248.689 233.244C248.401 233.244 248.119 233.31 247.843 233.442C247.579 233.562 247.339 233.778 247.123 234.09C246.919 234.402 246.757 234.822 246.637 235.35C246.517 235.866 246.457 236.52 246.457 237.312ZM259.307 231.462C259.979 231.462 260.597 231.576 261.161 231.804C261.737 232.02 262.229 232.368 262.637 232.848C263.057 233.316 263.381 233.922 263.609 234.666C263.849 235.398 263.969 236.28 263.969 237.312C263.969 238.332 263.843 239.214 263.591 239.958C263.339 240.69 262.997 241.296 262.565 241.776C262.133 242.256 261.635 242.616 261.071 242.856C260.507 243.084 259.913 243.198 259.289 243.198C258.617 243.198 257.993 243.09 257.417 242.874C256.853 242.646 256.361 242.292 255.941 241.812C255.521 241.332 255.191 240.72 254.951 239.976C254.723 239.232 254.609 238.344 254.609 237.312C254.609 236.328 254.735 235.47 254.987 234.738C255.251 233.994 255.599 233.382 256.031 232.902C256.463 232.422 256.961 232.062 257.525 231.822C258.101 231.582 258.695 231.462 259.307 231.462ZM257.075 237.312C257.075 238.116 257.135 238.782 257.255 239.31C257.375 239.838 257.537 240.258 257.741 240.57C257.957 240.882 258.197 241.104 258.461 241.236C258.737 241.356 259.019 241.416 259.307 241.416C259.595 241.416 259.871 241.35 260.135 241.218C260.411 241.086 260.645 240.864 260.837 240.552C261.041 240.24 261.203 239.82 261.323 239.292C261.443 238.764 261.503 238.104 261.503 237.312C261.503 236.508 261.443 235.848 261.323 235.332C261.203 234.804 261.041 234.39 260.837 234.09C260.645 233.778 260.411 233.562 260.135 233.442C259.871 233.31 259.595 233.244 259.307 233.244C259.019 233.244 258.737 233.31 258.461 233.442C258.197 233.562 257.957 233.778 257.741 234.09C257.537 234.402 257.375 234.822 257.255 235.35C257.135 235.866 257.075 236.52 257.075 237.312ZM269.924 231.462C270.596 231.462 271.214 231.576 271.778 231.804C272.354 232.02 272.846 232.368 273.254 232.848C273.674 233.316 273.998 233.922 274.226 234.666C274.466 235.398 274.586 236.28 274.586 237.312C274.586 238.332 274.46 239.214 274.208 239.958C273.956 240.69 273.614 241.296 273.182 241.776C272.75 242.256 272.252 242.616 271.688 242.856C271.124 243.084 270.53 243.198 269.906 243.198C269.234 243.198 268.61 243.09 268.034 242.874C267.47 242.646 266.978 242.292 266.558 241.812C266.138 241.332 265.808 240.72 265.568 239.976C265.34 239.232 265.226 238.344 265.226 237.312C265.226 236.328 265.352 235.47 265.604 234.738C265.868 233.994 266.216 233.382 266.648 232.902C267.08 232.422 267.578 232.062 268.142 231.822C268.718 231.582 269.312 231.462 269.924 231.462ZM267.692 237.312C267.692 238.116 267.752 238.782 267.872 239.31C267.992 239.838 268.154 240.258 268.358 240.57C268.574 240.882 268.814 241.104 269.078 241.236C269.354 241.356 269.636 241.416 269.924 241.416C270.212 241.416 270.488 241.35 270.752 241.218C271.028 241.086 271.262 240.864 271.454 240.552C271.658 240.24 271.82 239.82 271.94 239.292C272.06 238.764 272.12 238.104 272.12 237.312C272.12 236.508 272.06 235.848 271.94 235.332C271.82 234.804 271.658 234.39 271.454 234.09C271.262 233.778 271.028 233.562 270.752 233.442C270.488 233.31 270.212 233.244 269.924 233.244C269.636 233.244 269.354 233.31 269.078 233.442C268.814 233.562 268.574 233.778 268.358 234.09C268.154 234.402 267.992 234.822 267.872 235.35C267.752 235.866 267.692 236.52 267.692 237.312Z" fill="white"/>
<line x1="229" y1="248.5" x2="279" y2="248.5" stroke="black"/>
<rect x="67.8017" y="140.275" width="345.411" height="73" transform="rotate(-22.5787 67.8017 140.275)" fill="#EEEE32" stroke="black"/>
<g filter="url(#filter0_d)">
<path d="M114.177 162.329L111.207 163.572L116.566 176.733L105.718 181.273L89.3217 141.014L102.43 135.528C107.036 133.6 110.89 133.226 113.991 134.407C117.092 135.588 119.628 138.599 121.6 143.44C123.571 148.28 123.925 152.179 122.66 155.137C121.396 158.094 118.568 160.491 114.177 162.329ZM111.839 153.064C111.928 152.167 111.584 150.768 110.81 148.866C110.035 146.964 109.275 145.714 108.527 145.117C107.78 144.519 106.76 144.49 105.469 145.031L103.919 145.679L108.091 155.922L109.899 155.166C111.104 154.661 111.751 153.961 111.839 153.064ZM135.757 155.639C134.097 151.564 133.665 148.294 134.461 145.829C135.288 143.352 137.346 141.424 140.636 140.047C143.957 138.657 146.735 138.543 148.971 139.702C151.207 140.862 153.161 143.495 154.833 147.601C156.493 151.676 156.962 154.949 156.24 157.419C155.519 159.889 153.482 161.825 150.131 163.228C146.779 164.63 143.957 164.727 141.665 163.519C139.374 162.31 137.404 159.683 135.757 155.639ZM145.035 146.607C144.599 146.067 143.981 145.964 143.182 146.299C142.383 146.633 142.001 147.154 142.037 147.862C142.073 148.569 142.494 149.911 143.298 151.887L143.751 152.998C144.644 155.19 145.33 156.565 145.809 157.123C146.288 157.681 146.912 157.8 147.681 157.478C148.48 157.143 148.856 156.607 148.807 155.869C148.758 155.13 148.325 153.758 147.508 151.751L146.961 150.408C146.144 148.401 145.502 147.134 145.035 146.607ZM158.854 140.77C157.936 138.516 157.902 136.489 158.752 134.688C159.62 132.843 161.254 131.419 163.652 130.415C166.05 129.411 168.605 128.703 171.317 128.291L173.154 135.056C169.729 135.659 167.478 136.185 166.401 136.635C165.756 136.906 165.54 137.303 165.753 137.828C165.892 138.168 166.371 138.328 167.191 138.31C170.016 138.176 172.276 138.423 173.971 139.05C175.697 139.665 177.025 141.114 177.955 143.399C178.886 145.683 179.012 147.672 178.334 149.365C177.643 151.027 176.083 152.366 173.654 153.383C171.256 154.387 168.731 155.082 166.082 155.468L164.043 149.004C167.457 148.551 169.61 148.138 170.502 147.765C171.425 147.378 171.798 146.969 171.622 146.537C171.446 146.105 170.969 145.907 170.192 145.943C167.028 146.039 164.577 145.764 162.838 145.118C161.087 144.442 159.759 142.992 158.854 140.77ZM199.258 142.18C197.096 143.41 195.169 144.379 193.478 145.087C191.817 145.781 190.335 145.896 189.029 145.431C187.742 144.922 186.659 143.586 185.778 141.425L181.403 130.682L179.189 131.609L176.851 125.867L179.434 124.786L178.114 120.352L185.078 117.437L186.813 121.697L190.918 119.979L192.934 125.856L189.106 127.459L192.859 136.674C193.123 137.322 193.562 137.517 194.177 137.26C194.239 137.234 195.173 136.789 196.98 135.924L199.258 142.18ZM201.123 128.283C199.463 124.208 199.031 120.938 199.827 118.473C200.653 115.995 202.712 114.068 206.002 112.691C209.323 111.301 212.101 111.186 214.337 112.346C216.573 113.506 218.527 116.139 220.199 120.245C221.859 124.32 222.328 127.593 221.606 130.063C220.885 132.533 218.848 134.469 215.496 135.872C212.145 137.274 209.323 137.371 207.031 136.162C204.739 134.954 202.77 132.327 201.123 128.283ZM210.401 119.251C209.965 118.711 209.347 118.608 208.548 118.943C207.748 119.277 207.367 119.798 207.403 120.506C207.439 121.213 207.86 122.555 208.664 124.531L209.117 125.642C210.01 127.834 210.696 129.209 211.175 129.767C211.654 130.325 212.278 130.444 213.047 130.122C213.846 129.787 214.222 129.251 214.173 128.512C214.124 127.774 213.691 126.402 212.874 124.395L212.327 123.052C211.51 121.045 210.868 119.778 210.401 119.251ZM267.611 113.519L260.046 116.685L248.646 105.793L248.277 105.947L253.727 119.33L246.717 122.264L235.005 93.5072L242.8 90.2449L254.093 101.67L254.462 101.516L248.842 87.7162L255.899 84.7629L267.611 113.519ZM285.611 86.7993L289.285 96.4814C289.523 97.0679 289.825 97.4113 290.19 97.5116C290.573 97.5682 291.118 97.4484 291.825 97.1525L293.415 103.045C291.682 103.915 290.723 104.389 290.539 104.466C288.263 105.418 286.498 105.236 285.241 103.919L285.011 104.015C284.514 106.066 283.082 107.586 280.715 108.577C278.9 109.337 277.262 109.336 275.801 108.574C274.37 107.8 273.239 106.394 272.409 104.357C271.366 101.794 271.427 99.6912 272.593 98.047C273.79 96.3899 276.032 94.6928 279.319 92.9557L278.866 91.8443C278.514 90.9799 277.908 90.7279 277.047 91.0882C275.571 91.7059 273.447 93.1187 270.675 95.3266L266.769 89.0484C270.29 86.3824 273.357 84.5025 275.971 83.4087C278.584 82.3148 280.621 82.0585 282.082 82.6397C283.542 83.2209 284.719 84.6075 285.611 86.7993ZM281.368 101.963C282.505 101.486 282.829 100.646 282.339 99.4425L281.415 97.1734C280.34 97.8039 279.626 98.3919 279.272 98.9374C278.936 99.4391 278.926 100.076 279.24 100.848C279.705 101.99 280.414 102.362 281.368 101.963ZM299.667 76.0388C300.768 73.8801 302.332 72.376 304.362 71.5267C306.391 70.6774 308.001 70.5639 309.19 71.1863C310.397 71.765 311.385 72.9959 312.151 74.8791L319.111 91.9663L311.27 95.2478L305.385 80.8001C305.071 80.0283 304.576 79.784 303.899 80.0671C303.038 80.4274 302.404 80.9459 301.995 81.6226L308.087 96.5798L300.338 99.8227L291.305 77.6417L298.362 74.6883L299.483 76.116L299.667 76.0388ZM338.953 83.7162C336.791 84.9463 334.864 85.9153 333.173 86.6231C331.513 87.318 330.03 87.4327 328.724 86.9672C327.437 86.458 326.354 85.1229 325.474 82.962L321.098 72.2188L318.884 73.1453L316.546 67.4033L319.129 66.3223L317.809 61.8883L324.773 58.9736L326.508 63.2338L330.613 61.5158L332.629 67.393L328.801 68.9951L332.554 78.2102C332.818 78.8585 333.257 79.054 333.872 78.7966C333.934 78.7709 334.868 78.3256 336.676 77.4609L338.953 83.7162ZM348.394 60.8495C347.594 61.1841 347.185 61.6807 347.165 62.3394C347.133 62.9671 347.343 63.8367 347.796 64.9481L351.808 63.2687L351.356 62.1573C350.765 60.7064 349.778 60.2705 348.394 60.8495ZM345.881 54.1505C349.049 52.825 351.623 52.6509 353.605 53.6282C355.604 54.5618 357.183 56.4487 358.339 59.2889C358.49 59.6593 359.062 61.3714 360.053 64.4251L349.537 68.8262C350.48 71.1416 352.012 71.8553 354.134 70.9673C355.149 70.5427 356.988 69.3576 359.65 67.4122L362.635 72.884C360.379 74.7676 357.959 76.2499 355.376 77.3309C352.209 78.6564 349.359 78.6388 346.825 77.2782C344.279 75.8868 342.277 73.4005 340.818 69.8194C337.675 62.1016 339.363 56.8786 345.881 54.1505ZM363.194 55.2518C362.276 52.9982 362.242 50.9708 363.092 49.1697C363.961 47.3249 365.594 45.9006 367.992 44.8969C370.391 43.8931 372.946 43.1852 375.657 42.7731L377.494 49.5379C374.069 50.1405 371.818 50.667 370.742 51.1174C370.096 51.3876 369.88 51.7852 370.094 52.31C370.232 52.6496 370.711 52.8103 371.532 52.7921C374.356 52.6579 376.616 52.9045 378.311 53.532C380.037 54.1466 381.365 55.5962 382.296 57.8807C383.226 60.1651 383.352 62.1539 382.674 63.8469C381.983 65.509 380.424 66.8483 377.994 67.865C375.596 68.8687 373.072 69.5638 370.422 69.9501L368.383 63.4864C371.798 63.033 373.951 62.6197 374.842 62.2466C375.765 61.8605 376.138 61.4514 375.962 61.0192C375.786 60.587 375.31 60.3889 374.532 60.4251C371.368 60.5208 368.917 60.2459 367.179 59.6004C365.427 58.924 364.099 57.4745 363.194 55.2518Z" fill="#281431"/>
<path d="M111.207 163.572L110.829 162.646L109.907 163.032L110.284 163.958L111.207 163.572ZM116.566 176.733L116.944 177.659L117.866 177.273L117.489 176.347L116.566 176.733ZM105.718 181.273L104.796 181.659L105.173 182.585L106.095 182.199L105.718 181.273ZM89.3217 141.014L88.9446 140.087L88.0221 140.473L88.3993 141.4L89.3217 141.014ZM122.66 155.137L121.745 154.745L121.745 154.745L122.66 155.137ZM111.839 153.064L110.848 152.972L110.848 152.972L111.839 153.064ZM108.527 145.117L109.15 144.329L109.15 144.329L108.527 145.117ZM103.919 145.679L103.542 144.753L102.62 145.139L102.997 146.065L103.919 145.679ZM108.091 155.922L107.168 156.308L107.546 157.235L108.468 156.848L108.091 155.922ZM113.8 161.403L110.829 162.646L111.584 164.498L114.554 163.255L113.8 161.403ZM110.284 163.958L115.644 177.119L117.489 176.347L112.129 163.186L110.284 163.958ZM116.189 175.807L105.341 180.347L106.095 182.199L116.944 177.659L116.189 175.807ZM106.641 180.887L90.2442 140.627L88.3993 141.4L104.796 181.659L106.641 180.887ZM89.6989 141.94L102.807 136.454L102.053 134.601L88.9446 140.087L89.6989 141.94ZM102.807 136.454C107.293 134.576 110.864 134.292 113.633 135.346L114.349 133.469C110.916 132.161 106.78 132.623 102.053 134.601L102.807 136.454ZM113.633 135.346C116.363 136.386 118.752 139.098 120.677 143.826L122.522 143.054C120.505 138.1 117.821 134.791 114.349 133.469L113.633 135.346ZM120.677 143.826C122.609 148.568 122.853 152.154 121.745 154.745L123.575 155.528C124.996 152.204 124.534 147.992 122.522 143.054L120.677 143.826ZM121.745 154.745C120.625 157.365 118.065 159.618 113.8 161.403L114.554 163.255C119.07 161.365 122.166 158.823 123.575 155.528L121.745 154.745ZM112.831 153.156C112.946 151.989 112.508 150.385 111.732 148.48L109.887 149.252C110.66 151.15 110.909 152.345 110.848 152.972L112.831 153.156ZM111.732 148.48C110.951 146.562 110.112 145.099 109.15 144.329L107.904 145.904C108.437 146.33 109.12 147.367 109.887 149.252L111.732 148.48ZM109.15 144.329C108.002 143.411 106.549 143.495 105.092 144.105L105.846 145.957C106.972 145.486 107.558 145.627 107.904 145.904L109.15 144.329ZM105.092 144.105L103.542 144.753L104.296 146.605L105.846 145.957L105.092 144.105ZM102.997 146.065L107.168 156.308L109.013 155.536L104.842 145.293L102.997 146.065ZM108.468 156.848L110.276 156.092L109.522 154.24L107.714 154.996L108.468 156.848ZM110.276 156.092C111.649 155.517 112.691 154.579 112.831 153.156L110.848 152.972C110.811 153.342 110.56 153.805 109.522 154.24L110.276 156.092ZM134.461 145.829L133.517 145.516L133.514 145.525L134.461 145.829ZM156.24 157.419L157.196 157.696L157.196 157.696L156.24 157.419ZM141.665 163.519L141.198 164.408L141.198 164.408L141.665 163.519ZM145.035 146.607L144.26 147.243L144.274 147.261L144.289 147.277L145.035 146.607ZM142.037 147.862L141.042 147.92L141.042 147.92L142.037 147.862ZM145.809 157.123L146.565 156.464L146.565 156.464L145.809 157.123ZM148.807 155.869L147.813 155.942L147.813 155.942L148.807 155.869ZM136.68 155.253C135.052 151.256 134.723 148.259 135.409 146.134L133.514 145.525C132.608 148.329 133.143 151.873 134.835 156.025L136.68 155.253ZM135.406 146.143C136.109 144.034 137.887 142.282 141.013 140.973L140.259 139.121C136.805 140.567 134.466 142.669 133.517 145.516L135.406 146.143ZM141.013 140.973C144.181 139.647 146.63 139.62 148.51 140.595L149.432 138.81C146.841 137.465 143.732 137.667 140.259 139.121L141.013 140.973ZM148.51 140.595C150.429 141.591 152.267 143.952 153.911 147.987L155.756 147.215C154.055 143.039 151.985 140.134 149.432 138.81L148.51 140.595ZM153.911 147.987C155.541 151.989 155.91 155 155.285 157.142L157.196 157.696C158.014 154.898 157.446 151.364 155.756 147.215L153.911 147.987ZM155.285 157.142C154.68 159.211 152.948 160.965 149.753 162.302L150.508 164.154C154.017 162.685 156.358 160.567 157.196 157.696L155.285 157.142ZM149.753 162.302C146.562 163.637 144.071 163.652 142.133 162.629L141.198 164.408C143.843 165.803 146.996 165.624 150.508 164.154L149.753 162.302ZM142.133 162.629C140.146 161.581 138.293 159.215 136.68 155.253L134.835 156.025C136.515 160.151 138.601 163.038 141.198 164.408L142.133 162.629ZM145.81 145.971C145.458 145.534 144.987 145.23 144.414 145.135C143.864 145.043 143.315 145.159 142.805 145.373L143.559 147.225C143.849 147.104 144.008 147.104 144.076 147.115C144.12 147.122 144.177 147.14 144.26 147.243L145.81 145.971ZM142.805 145.373C142.293 145.587 141.826 145.897 141.495 146.349C141.153 146.816 141.013 147.359 141.042 147.92L143.032 147.803C143.025 147.658 143.058 147.586 143.097 147.532C143.148 147.463 143.271 147.345 143.559 147.225L142.805 145.373ZM141.042 147.92C141.067 148.406 141.213 149.018 141.429 149.707C141.651 150.414 141.968 151.271 142.376 152.273L144.221 151.501C143.824 150.527 143.529 149.725 143.33 149.091C143.126 148.438 143.044 148.025 143.032 147.803L141.042 147.92ZM142.376 152.273L142.829 153.384L144.674 152.612L144.221 151.501L142.376 152.273ZM142.829 153.384C143.28 154.493 143.685 155.41 144.044 156.128C144.393 156.828 144.729 157.405 145.053 157.782L146.565 156.464C146.41 156.283 146.163 155.894 145.826 155.218C145.499 154.562 145.115 153.696 144.674 152.612L142.829 153.384ZM145.053 157.782C145.415 158.204 145.88 158.51 146.446 158.617C146.999 158.721 147.548 158.618 148.058 158.404L147.304 156.552C147.045 156.66 146.898 156.658 146.827 156.644C146.769 156.633 146.682 156.601 146.565 156.464L145.053 157.782ZM148.058 158.404C148.577 158.187 149.048 157.867 149.376 157.399C149.713 156.917 149.839 156.362 149.801 155.795L147.813 155.942C147.824 156.113 147.787 156.196 147.749 156.251C147.701 156.319 147.585 156.434 147.304 156.552L148.058 158.404ZM149.801 155.795C149.769 155.302 149.618 154.681 149.396 153.976C149.168 153.254 148.845 152.382 148.43 151.365L146.585 152.137C146.988 153.126 147.29 153.944 147.496 154.595C147.706 155.262 147.796 155.697 147.813 155.942L149.801 155.795ZM148.43 151.365L147.884 150.022L146.039 150.794L146.585 152.137L148.43 151.365ZM147.884 150.022C147.469 149.005 147.093 148.159 146.755 147.492C146.426 146.843 146.102 146.3 145.781 145.937L144.289 147.277C144.435 147.442 144.665 147.796 144.978 148.414C145.282 149.014 145.636 149.805 146.039 150.794L147.884 150.022ZM158.752 134.688L159.652 135.113L159.652 135.112L158.752 134.688ZM171.317 128.291L172.278 128.02L172.046 127.167L171.175 127.299L171.317 128.291ZM173.154 135.056L173.319 136.044L174.406 135.853L174.116 134.785L173.154 135.056ZM167.191 138.31L167.207 139.313L167.219 139.313L167.232 139.312L167.191 138.31ZM173.971 139.05L173.621 139.992L173.633 139.996L173.971 139.05ZM178.334 149.365L179.253 149.747L179.258 149.735L178.334 149.365ZM166.082 155.468L165.132 155.778L165.385 156.583L166.218 156.461L166.082 155.468ZM164.043 149.004L163.919 148.01L162.731 148.167L163.093 149.314L164.043 149.004ZM170.192 145.943L170.215 146.946L170.223 146.946L170.231 146.945L170.192 145.943ZM162.838 145.118L162.476 146.056L162.488 146.06L162.838 145.118ZM159.776 140.384C158.939 138.327 158.949 136.602 159.652 135.113L157.852 134.262C156.855 136.376 156.933 138.705 157.931 141.156L159.776 140.384ZM159.652 135.112C160.386 133.552 161.794 132.277 164.029 131.341L163.275 129.489C160.713 130.561 158.854 132.134 157.852 134.263L159.652 135.112ZM164.029 131.341C166.348 130.371 168.824 129.684 171.459 129.283L171.175 127.299C168.387 127.723 165.753 128.452 163.275 129.489L164.029 131.341ZM170.355 128.562L172.193 135.327L174.116 134.785L172.278 128.02L170.355 128.562ZM172.989 134.068C169.582 134.667 167.22 135.209 166.024 135.709L166.779 137.562C167.735 137.161 169.875 136.65 173.319 136.044L172.989 134.068ZM166.024 135.709C165.601 135.886 165.146 136.173 164.882 136.659C164.592 137.191 164.642 137.751 164.831 138.214L166.676 137.442C166.661 137.404 166.67 137.411 166.67 137.454C166.67 137.476 166.668 137.503 166.66 137.533C166.652 137.563 166.641 137.59 166.629 137.613C166.603 137.66 166.582 137.671 166.602 137.656C166.624 137.639 166.676 137.604 166.779 137.562L166.024 135.709ZM164.831 138.214C165.047 138.743 165.493 139.02 165.896 139.155C166.29 139.287 166.744 139.324 167.207 139.313L167.176 137.307C166.819 137.315 166.623 137.28 166.537 137.251C166.461 137.225 166.599 137.252 166.676 137.442L164.831 138.214ZM167.232 139.312C169.99 139.181 172.101 139.429 173.621 139.992L174.321 138.108C172.451 137.416 170.042 137.171 167.151 137.308L167.232 139.312ZM173.633 139.996C175.012 140.487 176.171 141.669 177.033 143.785L178.878 143.013C177.879 140.559 176.382 138.842 174.309 138.104L173.633 139.996ZM177.033 143.785C177.901 145.916 177.96 147.622 177.41 148.995L179.258 149.735C180.064 147.722 179.871 145.45 178.878 143.013L177.033 143.785ZM177.415 148.983C176.866 150.304 175.576 151.495 173.277 152.457L174.031 154.309C176.591 153.238 178.42 151.75 179.253 149.747L177.415 148.983ZM173.277 152.457C170.958 153.427 168.515 154.1 165.945 154.475L166.218 156.461C168.948 156.063 171.553 155.346 174.031 154.309L173.277 152.457ZM167.032 155.159L164.993 148.695L163.093 149.314L165.132 155.778L167.032 155.159ZM164.167 149.999C165.883 149.771 167.296 149.552 168.399 149.34C169.48 149.133 170.33 148.921 170.879 148.691L170.125 146.838C169.783 146.982 169.11 147.163 168.038 147.369C166.988 147.57 165.617 147.784 163.919 148.01L164.167 149.999ZM170.879 148.691C171.383 148.48 171.87 148.212 172.206 147.844C172.383 147.649 172.547 147.396 172.621 147.081C172.697 146.755 172.66 146.435 172.544 146.151L170.699 146.923C170.672 146.856 170.654 146.749 170.681 146.633C170.705 146.528 170.751 146.482 170.742 146.492C170.731 146.504 170.686 146.548 170.576 146.615C170.47 146.68 170.322 146.756 170.125 146.838L170.879 148.691ZM172.544 146.151C172.116 145.101 171.032 144.9 170.153 144.941L170.231 146.945C170.541 146.931 170.693 146.97 170.747 146.992C170.768 147.001 170.76 147.001 170.741 146.983C170.721 146.964 170.706 146.94 170.699 146.923L172.544 146.151ZM170.169 144.94C167.055 145.034 164.752 144.757 163.189 144.177L162.488 146.06C164.401 146.77 167.001 147.043 170.215 146.946L170.169 144.94ZM163.201 144.181C161.769 143.628 160.608 142.426 159.776 140.384L157.931 141.156C158.91 143.559 160.405 145.256 162.476 146.056L163.201 144.181ZM199.258 142.18L199.744 143.052L200.486 142.63L200.194 141.829L199.258 142.18ZM189.029 145.431L188.659 146.365L188.675 146.371L188.691 146.377L189.029 145.431ZM181.403 130.682L182.326 130.296L181.948 129.37L181.026 129.756L181.403 130.682ZM179.189 131.609L178.267 131.995L178.644 132.921L179.566 132.535L179.189 131.609ZM176.851 125.867L176.473 124.941L175.551 125.327L175.928 126.253L176.851 125.867ZM179.434 124.786L179.811 125.712L180.647 125.362L180.388 124.492L179.434 124.786ZM178.114 120.352L177.736 119.426L176.9 119.776L177.159 120.646L178.114 120.352ZM185.078 117.437L186.001 117.051L185.624 116.125L184.701 116.511L185.078 117.437ZM186.813 121.697L185.891 122.083L186.268 123.009L187.191 122.623L186.813 121.697ZM190.918 119.979L191.861 119.646L191.517 118.645L190.541 119.053L190.918 119.979ZM192.934 125.856L193.311 126.783L194.183 126.418L193.876 125.523L192.934 125.856ZM189.106 127.459L188.729 126.533L187.806 126.919L188.183 127.845L189.106 127.459ZM196.98 135.924L197.916 135.573L197.543 134.547L196.558 135.019L196.98 135.924ZM198.772 141.307C196.634 142.524 194.744 143.473 193.101 144.16L193.855 146.013C195.594 145.285 197.558 144.296 199.744 143.052L198.772 141.307ZM193.101 144.16C191.6 144.789 190.379 144.845 189.368 144.485L188.691 146.377C190.29 146.947 192.035 146.774 193.855 146.013L193.101 144.16ZM189.399 144.497C188.488 144.136 187.544 143.111 186.701 141.039L184.856 141.812C185.773 144.062 186.996 145.707 188.659 146.365L189.399 144.497ZM186.701 141.039L182.326 130.296L180.481 131.068L184.856 141.812L186.701 141.039ZM181.026 129.756L178.812 130.683L179.566 132.535L181.78 131.608L181.026 129.756ZM180.112 131.223L177.773 125.481L175.928 126.253L178.267 131.995L180.112 131.223ZM177.228 126.793L179.811 125.712L179.056 123.86L176.473 124.941L177.228 126.793ZM180.388 124.492L179.068 120.058L177.159 120.646L178.479 125.08L180.388 124.492ZM178.491 121.278L185.455 118.363L184.701 116.511L177.736 119.426L178.491 121.278ZM184.156 117.823L185.891 122.083L187.736 121.311L186.001 117.051L184.156 117.823ZM187.191 122.623L191.296 120.905L190.541 119.053L186.436 120.771L187.191 122.623ZM189.976 120.313L191.992 126.19L193.876 125.523L191.861 119.646L189.976 120.313ZM192.557 124.93L188.729 126.533L189.483 128.385L193.311 126.783L192.557 124.93ZM188.183 127.845L191.936 137.06L193.781 136.288L190.028 127.073L188.183 127.845ZM191.936 137.06C192.122 137.516 192.439 137.985 192.979 138.225C193.53 138.47 194.093 138.379 194.554 138.186L193.8 136.334C193.763 136.349 193.736 136.358 193.719 136.362C193.701 136.367 193.695 136.367 193.698 136.367C193.701 136.366 193.713 136.366 193.732 136.369C193.751 136.372 193.773 136.379 193.794 136.388C193.816 136.398 193.832 136.409 193.844 136.417C193.855 136.426 193.858 136.43 193.855 136.427C193.852 136.423 193.843 136.411 193.829 136.388C193.816 136.365 193.799 136.332 193.781 136.288L191.936 137.06ZM194.554 138.186C194.647 138.148 195.622 137.682 197.403 136.83L196.558 135.019C195.654 135.451 194.969 135.778 194.503 136C194.27 136.112 194.092 136.196 193.968 136.254C193.828 136.321 193.788 136.339 193.8 136.334L194.554 138.186ZM196.044 136.275L198.322 142.531L200.194 141.829L197.916 135.573L196.044 136.275ZM199.827 118.473L198.882 118.16L198.879 118.169L199.827 118.473ZM221.606 130.063L222.562 130.34L222.562 130.34L221.606 130.063ZM207.031 136.162L206.564 137.052L206.564 137.052L207.031 136.162ZM210.401 119.251L209.626 119.887L209.64 119.904L209.655 119.921L210.401 119.251ZM207.403 120.506L206.408 120.564L206.408 120.564L207.403 120.506ZM211.175 129.767L211.931 129.108L211.931 129.108L211.175 129.767ZM214.173 128.512L213.178 128.586L213.178 128.586L214.173 128.512ZM202.045 127.897C200.417 123.899 200.088 120.903 200.775 118.777L198.879 118.169C197.974 120.973 198.509 124.516 200.2 128.669L202.045 127.897ZM200.772 118.787C201.475 116.678 203.252 114.926 206.379 113.617L205.625 111.765C202.171 113.21 199.832 115.313 198.882 118.16L200.772 118.787ZM206.379 113.617C209.547 112.291 211.996 112.264 213.876 113.239L214.798 111.454C212.207 110.109 209.098 110.311 205.625 111.765L206.379 113.617ZM213.876 113.239C215.795 114.235 217.633 116.596 219.277 120.631L221.122 119.859C219.421 115.683 217.351 112.778 214.798 111.454L213.876 113.239ZM219.277 120.631C220.906 124.633 221.276 127.644 220.65 129.786L222.562 130.34C223.38 127.542 222.811 124.008 221.122 119.859L219.277 120.631ZM220.65 129.786C220.046 131.854 218.314 133.609 215.119 134.945L215.874 136.798C219.383 135.329 221.724 133.211 222.562 130.34L220.65 129.786ZM215.119 134.945C211.928 136.281 209.437 136.296 207.498 135.273L206.564 137.052C209.209 138.447 212.362 138.268 215.874 136.798L215.119 134.945ZM207.498 135.273C205.512 134.225 203.659 131.859 202.045 127.897L200.2 128.669C201.881 132.795 203.967 135.682 206.564 137.052L207.498 135.273ZM211.176 118.615C210.824 118.178 210.353 117.874 209.78 117.779C209.23 117.687 208.68 117.803 208.171 118.016L208.925 119.869C209.215 119.747 209.374 119.747 209.442 119.759C209.486 119.766 209.542 119.784 209.626 119.887L211.176 118.615ZM208.171 118.016C207.659 118.231 207.192 118.541 206.861 118.992C206.519 119.46 206.379 120.002 206.408 120.564L208.398 120.447C208.391 120.302 208.423 120.23 208.463 120.176C208.514 120.107 208.637 119.989 208.925 119.869L208.171 118.016ZM206.408 120.564C206.433 121.05 206.579 121.662 206.795 122.35C207.016 123.057 207.334 123.915 207.742 124.917L209.587 124.145C209.19 123.171 208.895 122.369 208.696 121.735C208.491 121.082 208.41 120.669 208.398 120.447L206.408 120.564ZM207.742 124.917L208.194 126.028L210.039 125.256L209.587 124.145L207.742 124.917ZM208.194 126.028C208.646 127.136 209.051 128.054 209.41 128.772C209.759 129.472 210.095 130.049 210.419 130.426L211.931 129.108C211.776 128.927 211.529 128.537 211.192 127.862C210.865 127.206 210.481 126.339 210.039 125.256L208.194 126.028ZM210.419 130.426C210.781 130.848 211.246 131.153 211.811 131.261C212.365 131.365 212.914 131.261 213.424 131.048L212.67 129.196C212.411 129.304 212.264 129.302 212.193 129.288C212.135 129.277 212.048 129.245 211.931 129.108L210.419 130.426ZM213.424 131.048C213.943 130.831 214.414 130.511 214.741 130.043C215.079 129.561 215.205 129.006 215.167 128.439L213.178 128.586C213.19 128.757 213.153 128.84 213.114 128.894C213.067 128.963 212.95 129.078 212.67 129.196L213.424 131.048ZM215.167 128.439C215.135 127.946 214.984 127.325 214.762 126.62C214.534 125.898 214.211 125.026 213.796 124.009L211.951 124.781C212.354 125.77 212.656 126.588 212.861 127.239C213.072 127.906 213.162 128.341 213.178 128.586L215.167 128.439ZM213.796 124.009L213.249 122.666L211.404 123.438L211.951 124.781L213.796 124.009ZM213.249 122.666C212.835 121.649 212.459 120.803 212.121 120.136C211.792 119.487 211.468 118.944 211.147 118.581L209.655 119.921C209.8 120.086 210.031 120.44 210.344 121.058C210.648 121.658 211.001 122.448 211.404 123.438L213.249 122.666ZM267.611 113.519L267.988 114.446L268.91 114.06L268.533 113.133L267.611 113.519ZM260.046 116.685L259.358 117.415L259.825 117.862L260.424 117.611L260.046 116.685ZM248.646 105.793L249.335 105.063L248.867 104.616L248.269 104.866L248.646 105.793ZM248.277 105.947L247.9 105.021L246.977 105.407L247.355 106.333L248.277 105.947ZM253.727 119.33L254.105 120.256L255.027 119.87L254.65 118.944L253.727 119.33ZM246.717 122.264L245.794 122.65L246.171 123.576L247.094 123.19L246.717 122.264ZM235.005 93.5072L234.628 92.581L233.705 92.9671L234.083 93.8932L235.005 93.5072ZM242.8 90.2449L243.509 89.5347L243.04 89.0605L242.423 89.3188L242.8 90.2449ZM254.093 101.67L253.384 102.38L253.853 102.855L254.47 102.596L254.093 101.67ZM254.462 101.516L254.839 102.442L255.762 102.056L255.385 101.13L254.462 101.516ZM248.842 87.7162L248.465 86.7901L247.542 87.1762L247.92 88.1023L248.842 87.7162ZM255.899 84.7629L256.821 84.3768L256.444 83.4507L255.522 83.8367L255.899 84.7629ZM267.233 112.593L259.669 115.759L260.424 117.611L267.988 114.446L267.233 112.593ZM260.735 115.955L249.335 105.063L247.957 106.523L259.358 117.415L260.735 115.955ZM248.269 104.866L247.9 105.021L248.654 106.873L249.023 106.719L248.269 104.866ZM247.355 106.333L252.805 119.716L254.65 118.944L249.2 105.561L247.355 106.333ZM253.35 118.404L246.339 121.338L247.094 123.19L254.105 120.256L253.35 118.404ZM247.639 121.878L235.927 93.1211L234.083 93.8932L245.794 122.65L247.639 121.878ZM235.382 94.4333L243.177 91.1711L242.423 89.3188L234.628 92.581L235.382 94.4333ZM242.091 90.9552L253.384 102.38L254.802 100.96L243.509 89.5347L242.091 90.9552ZM254.47 102.596L254.839 102.442L254.085 100.59L253.716 100.744L254.47 102.596ZM255.385 101.13L249.765 87.3302L247.92 88.1023L253.54 101.902L255.385 101.13ZM249.219 88.6424L256.276 85.689L255.522 83.8367L248.465 86.7901L249.219 88.6424ZM254.977 85.1489L266.688 113.905L268.533 113.133L256.821 84.3768L254.977 85.1489ZM285.611 86.7993L286.543 86.4358L286.538 86.4245L286.534 86.4133L285.611 86.7993ZM289.285 96.4814L288.353 96.845L288.358 96.8563L288.362 96.8674L289.285 96.4814ZM290.19 97.5116L289.921 98.4797L289.979 98.4956L290.039 98.5044L290.19 97.5116ZM291.825 97.1525L292.787 96.8833L292.492 95.7895L291.448 96.2263L291.825 97.1525ZM293.415 103.045L293.855 103.943L294.592 103.573L294.377 102.776L293.415 103.045ZM285.241 103.919L285.963 103.221L285.493 102.729L284.864 102.992L285.241 103.919ZM285.011 104.015L284.634 103.089L284.163 103.286L284.043 103.784L285.011 104.015ZM275.801 108.574L275.324 109.459L275.331 109.463L275.338 109.466L275.801 108.574ZM272.593 98.047L271.788 97.4605L271.783 97.4677L272.593 98.047ZM279.319 92.9557L279.777 93.8435L280.586 93.4161L280.241 92.5696L279.319 92.9557ZM270.675 95.3266L269.83 95.8634L270.417 96.8074L271.29 96.1118L270.675 95.3266ZM266.769 89.0484L266.173 88.2479L265.438 88.8049L265.923 89.5852L266.769 89.0484ZM282.082 82.6397L282.454 81.7063L282.454 81.7063L282.082 82.6397ZM281.415 97.1734L282.337 96.7874L281.906 95.7276L280.917 96.3073L281.415 97.1734ZM279.272 98.9374L280.097 99.4938L280.101 99.4879L280.105 99.4818L279.272 98.9374ZM284.68 87.1629L288.353 96.845L290.216 96.1178L286.543 86.4358L284.68 87.1629ZM288.362 96.8674C288.641 97.5522 289.109 98.2564 289.921 98.4797L290.459 96.5436C290.497 96.5542 290.489 96.5681 290.438 96.5111C290.383 96.4478 290.299 96.3219 290.207 96.0953L288.362 96.8674ZM290.039 98.5044C290.703 98.6025 291.462 98.3885 292.202 98.0786L291.448 96.2263C290.774 96.5084 290.443 96.5338 290.341 96.5188L290.039 98.5044ZM290.863 97.4217L292.454 103.314L294.377 102.776L292.787 96.8833L290.863 97.4217ZM292.976 102.148C292.11 102.582 291.439 102.917 290.962 103.152C290.724 103.27 290.536 103.362 290.397 103.429C290.328 103.462 290.273 103.489 290.231 103.508C290.21 103.518 290.193 103.526 290.181 103.531C290.174 103.534 290.17 103.536 290.166 103.538C290.163 103.539 290.161 103.54 290.162 103.54L290.916 105.392C291.142 105.297 292.148 104.799 293.855 103.943L292.976 102.148ZM290.162 103.54C289.122 103.975 288.283 104.114 287.616 104.045C286.973 103.979 286.433 103.714 285.963 103.221L284.52 104.616C285.306 105.44 286.277 105.925 287.4 106.041C288.499 106.155 289.681 105.909 290.916 105.392L290.162 103.54ZM284.864 102.992L284.634 103.089L285.388 104.941L285.619 104.845L284.864 102.992ZM284.043 103.784C283.639 105.451 282.483 106.753 280.337 107.651L281.092 109.503C283.681 108.42 285.39 106.68 285.979 104.246L284.043 103.784ZM280.337 107.651C278.739 108.32 277.415 108.282 276.263 107.682L275.338 109.466C277.11 110.389 279.062 110.353 281.092 109.503L280.337 107.651ZM276.277 107.69C275.108 107.057 274.105 105.869 273.332 103.971L271.487 104.743C272.374 106.92 273.631 108.543 275.324 109.459L276.277 107.69ZM273.332 103.971C272.364 101.594 272.508 99.8878 273.403 98.6263L271.783 97.4677C270.346 99.4946 270.368 101.995 271.487 104.743L273.332 103.971ZM273.398 98.6334C274.456 97.1675 276.532 95.5586 279.777 93.8435L278.861 92.0679C275.531 93.8271 273.123 95.6124 271.788 97.4606L273.398 98.6334ZM280.241 92.5696L279.789 91.4583L277.944 92.2304L278.397 93.3418L280.241 92.5696ZM279.789 91.4583C279.555 90.8833 279.166 90.3422 278.533 90.0791C277.9 89.8161 277.242 89.9224 276.67 90.1621L277.424 92.0144C277.712 91.8937 277.788 91.9459 277.762 91.9349C277.735 91.9239 277.826 91.941 277.944 92.2304L279.789 91.4583ZM276.67 90.1621C275.056 90.8376 272.839 92.3281 270.06 94.5413L271.29 96.1118C274.055 93.9093 276.086 92.5742 277.424 92.0144L276.67 90.1621ZM271.521 94.7898L267.614 88.5115L265.923 89.5852L269.83 95.8634L271.521 94.7898ZM267.364 89.8488C270.851 87.209 273.842 85.3834 276.348 84.3348L275.593 82.4825C272.872 83.6216 269.729 85.5559 266.173 88.2479L267.364 89.8488ZM276.348 84.3348C278.895 83.2688 280.621 83.1397 281.71 83.5732L282.454 81.7063C280.622 80.9773 278.274 81.3609 275.593 82.4825L276.348 84.3348ZM281.71 83.5732C282.819 84.0146 283.848 85.12 284.689 87.1854L286.534 86.4133C285.59 84.095 284.265 82.4273 282.454 81.7063L281.71 83.5732ZM281.745 102.889C282.469 102.586 283.099 102.095 283.393 101.333C283.681 100.583 283.56 99.7893 283.261 99.0564L281.416 99.8285C281.608 100.3 281.57 100.528 281.535 100.618C281.505 100.696 281.404 100.863 280.991 101.036L281.745 102.889ZM283.261 99.0564L282.337 96.7874L280.492 97.5595L281.416 99.8285L283.261 99.0564ZM280.917 96.3073C279.81 96.9569 278.925 97.6423 278.438 98.3929L280.105 99.4818C280.326 99.1415 280.87 98.6509 281.912 98.0395L280.917 96.3073ZM278.446 98.3809C277.857 99.2621 277.93 100.283 278.318 101.234L280.163 100.462C279.921 99.8687 280.016 99.6161 280.097 99.4938L278.446 98.3809ZM278.318 101.234C278.594 101.912 279.009 102.535 279.656 102.874C280.342 103.233 281.079 103.167 281.745 102.889L280.991 101.036C280.703 101.157 280.609 101.105 280.586 101.092C280.524 101.06 280.352 100.926 280.163 100.462L278.318 101.234ZM299.667 76.0388L300.045 76.9649L300.385 76.8225L300.553 76.4921L299.667 76.0388ZM309.19 71.1863L308.726 72.0773L308.741 72.0853L308.757 72.0928L309.19 71.1863ZM319.111 91.9663L319.488 92.8924L320.41 92.5064L320.033 91.5803L319.111 91.9663ZM311.27 95.2478L310.347 95.6339L310.724 96.56L311.647 96.174L311.27 95.2478ZM301.995 81.6226L301.145 81.1061L300.882 81.5407L301.073 82.0087L301.995 81.6226ZM308.087 96.5798L308.464 97.5059L309.387 97.1198L309.009 96.1937L308.087 96.5798ZM300.338 99.8227L299.416 100.209L299.793 101.135L300.715 100.749L300.338 99.8227ZM291.305 77.6417L290.927 76.7155L290.005 77.1016L290.382 78.0277L291.305 77.6417ZM298.362 74.6883L299.145 74.0627L298.68 73.471L297.984 73.7622L298.362 74.6883ZM299.483 76.116L298.699 76.7417L299.164 77.3334L299.86 77.0422L299.483 76.116ZM300.553 76.4921C301.556 74.5245 302.951 73.2012 304.739 72.4528L303.985 70.6006C301.714 71.5509 299.979 73.2356 298.781 75.5855L300.553 76.4921ZM304.739 72.4528C306.665 71.6469 307.924 71.6578 308.726 72.0773L309.654 70.2954C308.077 69.47 306.118 69.7078 303.985 70.6006L304.739 72.4528ZM308.757 72.0928C309.653 72.5223 310.509 73.4973 311.229 75.2651L313.074 74.493C312.26 72.4946 311.142 71.0078 309.623 70.2798L308.757 72.0928ZM311.229 75.2651L318.188 92.3524L320.033 91.5803L313.074 74.493L311.229 75.2651ZM318.733 91.0402L310.892 94.3217L311.647 96.174L319.488 92.8924L318.733 91.0402ZM312.192 94.8618L306.308 80.414L304.463 81.1862L310.347 95.6339L312.192 94.8618ZM306.308 80.414C306.104 79.9124 305.773 79.4082 305.221 79.1364C304.641 78.8502 304.035 78.9262 303.522 79.141L304.276 80.9932C304.318 80.976 304.348 80.9666 304.369 80.9617C304.389 80.9568 304.399 80.9565 304.399 80.9565C304.393 80.9567 304.365 80.9547 304.335 80.9397C304.308 80.9263 304.311 80.9186 304.337 80.9513C304.365 80.9866 304.411 81.0581 304.463 81.1862L306.308 80.414ZM303.522 79.141C302.502 79.5679 301.683 80.2134 301.145 81.1061L302.846 82.1392C303.124 81.6785 303.575 81.287 304.276 80.9932L303.522 79.141ZM301.073 82.0087L307.165 96.9658L309.009 96.1937L302.918 81.2366L301.073 82.0087ZM307.71 95.6536L299.961 98.8965L300.715 100.749L308.464 97.5059L307.71 95.6536ZM301.261 99.4366L292.227 77.2556L290.382 78.0277L299.416 100.209L301.261 99.4366ZM291.682 78.5678L298.739 75.6144L297.984 73.7622L290.927 76.7155L291.682 78.5678ZM297.578 75.3139L298.699 76.7417L300.266 75.4904L299.145 74.0627L297.578 75.3139ZM299.86 77.0422L300.045 76.9649L299.29 75.1127L299.106 75.1899L299.86 77.0422ZM338.953 83.7162L339.439 84.589L340.181 84.1668L339.889 83.3652L338.953 83.7162ZM328.724 86.9672L328.354 87.9014L328.37 87.9076L328.386 87.9133L328.724 86.9672ZM321.098 72.2188L322.021 71.8327L321.644 70.9066L320.721 71.2926L321.098 72.2188ZM318.884 73.1453L317.962 73.5314L318.339 74.4575L319.262 74.0714L318.884 73.1453ZM316.546 67.4033L316.169 66.4771L315.246 66.8632L315.623 67.7893L316.546 67.4033ZM319.129 66.3223L319.506 67.2484L320.343 66.8983L320.084 66.0282L319.129 66.3223ZM317.809 61.8883L317.432 60.9622L316.595 61.3123L316.854 62.1824L317.809 61.8883ZM324.773 58.9736L325.696 58.5875L325.319 57.6614L324.396 58.0474L324.773 58.9736ZM326.508 63.2338L325.586 63.6199L325.963 64.546L326.886 64.1599L326.508 63.2338ZM330.613 61.5158L331.556 61.1826L331.212 60.1812L330.236 60.5897L330.613 61.5158ZM332.629 67.393L333.006 68.3191L333.878 67.9542L333.571 67.0597L332.629 67.393ZM328.801 68.9951L328.424 68.069L327.501 68.4551L327.878 69.3812L328.801 68.9951ZM336.676 77.4609L337.612 77.1099L337.238 76.0838L336.253 76.5552L336.676 77.4609ZM338.467 82.8435C336.329 84.0601 334.439 85.0091 332.796 85.6969L333.55 87.5492C335.289 86.8215 337.253 85.8326 339.439 84.589L338.467 82.8435ZM332.796 85.6969C331.295 86.325 330.074 86.3819 329.063 86.0212L328.386 87.9133C329.985 88.4835 331.73 88.3109 333.55 87.5492L332.796 85.6969ZM329.094 86.033C328.183 85.6725 327.24 84.647 326.396 82.5759L324.551 83.348C325.468 85.5988 326.692 87.2435 328.354 87.9014L329.094 86.033ZM326.396 82.5759L322.021 71.8327L320.176 72.6048L324.551 83.348L326.396 82.5759ZM320.721 71.2926L318.507 72.2192L319.262 74.0714L321.475 73.1449L320.721 71.2926ZM319.807 72.7592L317.468 67.0172L315.623 67.7893L317.962 73.5314L319.807 72.7592ZM316.923 68.3294L319.506 67.2484L318.752 65.3961L316.169 66.4771L316.923 68.3294ZM320.084 66.0282L318.764 61.5943L316.854 62.1824L318.174 66.6163L320.084 66.0282ZM318.186 62.8145L325.151 59.8997L324.396 58.0474L317.432 60.9622L318.186 62.8145ZM323.851 59.3596L325.586 63.6199L327.431 62.8477L325.696 58.5875L323.851 59.3596ZM326.886 64.1599L330.991 62.442L330.236 60.5897L326.131 62.3077L326.886 64.1599ZM329.671 61.8491L331.687 67.7262L333.571 67.0597L331.556 61.1826L329.671 61.8491ZM332.252 66.4668L328.424 68.069L329.178 69.9213L333.006 68.3191L332.252 66.4668ZM327.878 69.3812L331.631 78.5963L333.476 77.8241L329.723 68.6091L327.878 69.3812ZM331.631 78.5963C331.817 79.0522 332.134 79.5212 332.674 79.7613C333.225 80.0065 333.788 79.9159 334.25 79.7227L333.495 77.8705C333.458 77.8859 333.431 77.8943 333.414 77.8987C333.396 77.9031 333.39 77.9032 333.393 77.903C333.396 77.9028 333.408 77.9025 333.427 77.9057C333.446 77.909 333.468 77.9151 333.489 77.9247C333.511 77.9343 333.528 77.9451 333.539 77.9538C333.55 77.9623 333.553 77.9669 333.55 77.9633C333.547 77.9595 333.538 77.9478 333.524 77.9247C333.511 77.9016 333.495 77.8688 333.476 77.8241L331.631 78.5963ZM334.25 79.7227C334.342 79.6842 335.317 79.2188 337.098 78.3666L336.253 76.5552C335.349 76.9875 334.664 77.3147 334.198 77.537C333.965 77.6481 333.787 77.7327 333.664 77.791C333.523 77.8575 333.483 77.8754 333.495 77.8705L334.25 79.7227ZM335.74 77.8119L338.017 84.0672L339.889 83.3652L337.612 77.1099L335.74 77.8119ZM347.165 62.3394L348.16 62.3844L348.161 62.3736L348.161 62.3627L347.165 62.3394ZM347.796 64.9481L346.873 65.3341L347.25 66.2603L348.173 65.8742L347.796 64.9481ZM351.808 63.2687L352.186 64.1948L353.108 63.8088L352.731 62.8826L351.808 63.2687ZM353.605 53.6282L353.161 54.5299L353.171 54.5346L353.18 54.539L353.605 53.6282ZM360.053 64.4251L360.43 65.3513L361.288 64.9923L361.001 64.1074L360.053 64.4251ZM349.537 68.8262L349.16 67.9001L348.237 68.2862L348.615 69.2123L349.537 68.8262ZM359.65 67.4122L360.525 66.9247L359.984 65.9329L359.069 66.6015L359.65 67.4122ZM362.635 72.884L363.268 73.6546L363.905 73.1225L363.509 72.3965L362.635 72.884ZM346.825 77.2782L346.345 78.1608L346.351 78.1642L346.825 77.2782ZM348.017 59.9234C347.517 60.1325 347.061 60.4239 346.722 60.8351C346.371 61.2613 346.185 61.7679 346.169 62.316L348.161 62.3627C348.165 62.2522 348.194 62.1812 348.252 62.1108C348.323 62.0254 348.471 61.9012 348.771 61.7757L348.017 59.9234ZM346.17 62.2943C346.126 63.1505 346.407 64.189 346.873 65.3341L348.718 64.562C348.279 63.4844 348.14 62.7837 348.16 62.3844L346.17 62.2943ZM348.173 65.8742L352.186 64.1948L351.431 62.3426L347.418 64.0219L348.173 65.8742ZM352.731 62.8826L352.278 61.7713L350.433 62.5434L350.886 63.6548L352.731 62.8826ZM352.278 61.7713C351.929 60.9129 351.392 60.1826 350.578 59.8228C349.752 59.4585 348.861 59.57 348.017 59.9234L348.771 61.7757C349.31 61.55 349.604 61.5899 349.767 61.6615C349.939 61.7377 350.192 61.9509 350.433 62.5434L352.278 61.7713ZM346.259 55.0766C349.305 53.8017 351.549 53.7346 353.161 54.5299L354.048 52.7266C351.697 51.5672 348.792 51.8483 345.504 53.2243L346.259 55.0766ZM353.18 54.539C354.88 55.3326 356.318 56.9774 357.417 59.6749L359.262 58.9028C358.047 55.9201 356.329 53.7911 354.029 52.7175L353.18 54.539ZM357.417 59.6749C357.55 60.0015 358.105 61.6622 359.106 64.7428L361.001 64.1074C360.018 61.0806 359.431 59.3171 359.262 58.9028L357.417 59.6749ZM359.676 63.499L349.16 67.9001L349.914 69.7524L360.43 65.3513L359.676 63.499ZM348.615 69.2123C349.137 70.4945 349.891 71.5065 350.97 72.0092C352.069 72.5208 353.288 72.4056 354.511 71.8935L353.757 70.0412C352.859 70.417 352.251 70.3889 351.817 70.1869C351.364 69.9758 350.88 69.4733 350.46 68.4402L348.615 69.2123ZM354.511 71.8935C355.653 71.4156 357.586 70.1564 360.232 68.2229L359.069 66.6015C356.389 68.5589 354.645 69.6697 353.757 70.0412L354.511 71.8935ZM358.776 67.8997L361.76 73.3715L363.509 72.3965L360.525 66.9247L358.776 67.8997ZM362.001 72.1134C359.819 73.9357 357.485 75.3643 354.999 76.4048L355.753 78.257C358.433 77.1356 360.938 75.5996 363.268 73.6546L362.001 72.1134ZM354.999 76.4048C352.05 77.6388 349.519 77.5848 347.299 76.3922L346.351 78.1642C349.198 79.6928 352.368 79.6739 355.753 78.257L354.999 76.4048ZM347.305 76.3956C345.016 75.1445 343.141 72.8719 341.741 69.4334L339.896 70.2055C341.412 73.9291 343.542 76.629 346.345 78.1608L347.305 76.3956ZM341.741 69.4334C340.213 65.6833 339.933 62.7108 340.674 60.4184C341.402 58.1655 343.185 56.363 346.259 55.0766L345.504 53.2243C342.059 54.6661 339.739 56.8391 338.779 59.8093C337.832 62.7399 338.28 66.2377 339.896 70.2055L341.741 69.4334ZM363.092 49.1697L363.992 49.5953L363.992 49.5943L363.092 49.1697ZM375.657 42.7731L376.619 42.5024L376.387 41.6485L375.515 41.781L375.657 42.7731ZM377.494 49.5379L377.659 50.5263L378.746 50.3352L378.456 49.2672L377.494 49.5379ZM371.532 52.7921L371.547 53.7953L371.559 53.795L371.572 53.7944L371.532 52.7921ZM378.311 53.532L377.962 54.4741L377.973 54.4782L378.311 53.532ZM382.674 63.8469L383.593 64.2288L383.598 64.2167L382.674 63.8469ZM370.422 69.9501L369.472 70.2597L369.726 71.0645L370.558 70.9431L370.422 69.9501ZM368.383 63.4864L368.26 62.4916L367.072 62.6494L367.433 63.7959L368.383 63.4864ZM374.532 60.4251L374.556 61.428L374.564 61.4278L374.572 61.4274L374.532 60.4251ZM367.179 59.6004L366.816 60.5376L366.828 60.5421L367.179 59.6004ZM364.117 54.8657C363.279 52.8089 363.29 51.0836 363.992 49.5953L362.193 48.7441C361.195 50.858 361.274 53.1874 362.272 55.6378L364.117 54.8657ZM363.992 49.5943C364.727 48.0342 366.134 46.7585 368.37 45.823L367.615 43.9707C365.054 45.0427 363.194 46.6157 362.192 48.7452L363.992 49.5943ZM368.37 45.823C370.688 44.8526 373.164 44.1658 375.799 43.7652L375.515 41.781C372.727 42.2046 370.093 42.9337 367.615 43.9707L368.37 45.823ZM374.696 43.0439L376.533 49.8087L378.456 49.2672L376.619 42.5024L374.696 43.0439ZM377.329 48.5496C373.922 49.1489 371.561 49.6907 370.365 50.1913L371.119 52.0435C372.075 51.6433 374.215 51.1321 377.659 50.5263L377.329 48.5496ZM370.365 50.1913C369.941 50.3684 369.486 50.655 369.222 51.1413C368.933 51.6735 368.983 52.233 369.171 52.696L371.016 51.9239C371.001 51.8864 371.011 51.8934 371.011 51.9359C371.011 51.9575 371.008 51.9845 371 52.0146C370.993 52.0447 370.982 52.0721 370.969 52.0952C370.944 52.1417 370.923 52.1528 370.942 52.1375C370.964 52.121 371.017 52.0863 371.119 52.0435L370.365 50.1913ZM369.171 52.696C369.387 53.2255 369.833 53.5022 370.236 53.6374C370.63 53.7695 371.084 53.8055 371.547 53.7953L371.517 51.789C371.159 51.7969 370.963 51.7617 370.878 51.733C370.801 51.7074 370.939 51.7341 371.016 51.9239L369.171 52.696ZM371.572 53.7944C374.33 53.6633 376.441 53.9112 377.962 54.4741L378.661 52.59C376.791 51.8979 374.382 51.6525 371.492 51.7899L371.572 53.7944ZM377.973 54.4782C379.352 54.9692 380.512 56.151 381.373 58.2667L383.218 57.4946C382.219 55.0414 380.722 53.324 378.649 52.5858L377.973 54.4782ZM381.373 58.2667C382.241 60.3983 382.3 62.1039 381.75 63.477L383.598 64.2167C384.404 62.2039 384.211 59.9319 383.218 57.4946L381.373 58.2667ZM381.755 63.465C381.206 64.7858 379.916 65.9767 377.617 66.9388L378.372 68.7911C380.931 67.72 382.761 66.2322 383.593 64.2287L381.755 63.465ZM377.617 66.9388C375.299 67.9092 372.856 68.5825 370.286 68.9571L370.558 70.9431C373.288 70.5451 375.893 69.8283 378.372 68.7911L377.617 66.9388ZM371.372 69.6406L369.333 63.1768L367.433 63.7959L369.472 70.2597L371.372 69.6406ZM368.507 64.4811C370.224 64.2532 371.636 64.0336 372.739 63.822C373.82 63.6145 374.67 63.4026 375.22 63.1727L374.465 61.3204C374.123 61.4637 373.451 61.645 372.379 61.8508C371.328 62.0524 369.957 62.2662 368.26 62.4916L368.507 64.4811ZM375.22 63.1727C375.723 62.9618 376.21 62.6945 376.546 62.3261C376.724 62.1315 376.887 61.8779 376.961 61.5631C377.038 61.2366 377 60.9169 376.885 60.6331L375.04 61.4052C375.012 61.3375 374.994 61.231 375.021 61.1148C375.046 61.0104 375.091 60.9643 375.082 60.9742C375.072 60.9859 375.026 61.0298 374.917 61.0969C374.81 61.1624 374.662 61.2379 374.465 61.3204L375.22 63.1727ZM376.885 60.6331C376.457 59.5825 375.373 59.3819 374.493 59.4228L374.572 61.4274C374.882 61.413 375.034 61.4521 375.087 61.4744C375.108 61.483 375.1 61.4834 375.081 61.4653C375.061 61.4456 375.047 61.4223 375.04 61.4052L376.885 60.6331ZM374.509 59.4221C371.396 59.5163 369.093 59.2393 367.529 58.6587L366.828 60.5421C368.741 61.2525 371.341 61.5252 374.556 61.428L374.509 59.4221ZM367.541 58.6633C366.109 58.1102 364.948 56.9079 364.117 54.8657L362.272 55.6378C363.25 58.0411 364.746 59.7378 366.816 60.5375L367.541 58.6633Z" fill="black"/>
</g>
<path d="M212.5 425.5L287 327.425L307.217 327.425L212.5 457L212.5 425.5Z" fill="#C4C4C4" fill-opacity="0.1"/>
<path d="M213.584 479.326L318.815 326.32L345.457 326.114L244.751 479.084L213.584 479.326Z" fill="#C4C4C4" fill-opacity="0.1"/>
<defs>
<filter id="filter0_d" x="88.0221" y="41.6486" width="304.078" height="148.936" filterUnits="userSpaceOnUse" color-interpolation-filters="sRGB">
<feFlood flood-opacity="0" result="BackgroundImageFix"/>
<feColorMatrix in="SourceAlpha" type="matrix" values="0 0 0 0 0 0 0 0 0 0 0 0 0 0 0 0 0 0 127 0"/>
<feOffset dx="4" dy="4"/>
<feGaussianBlur stdDeviation="2"/>
<feColorMatrix type="matrix" values="0 0 0 0 0 0 0 0 0 0 0 0 0 0 0 0 0 0 0.25 0"/>
<feBlend mode="normal" in2="BackgroundImageFix" result="effect1_dropShadow"/>
<feBlend mode="normal" in="SourceGraphic" in2="effect1_dropShadow" result="shape"/>
</filter>
</defs>
</svg>
