<svg width="950" height="650" viewBox="0 0 950 650" fill="none" xmlns="http://www.w3.org/2000/svg">
<rect width="950" height="650" fill="white"/>
<path d="M271.288 325.48C270.072 325.48 269.112 325.128 268.408 324.424C267.704 323.656 267.352 322.664 267.352 321.448V261.16C267.352 260.008 267.704 259.08 268.408 258.376C269.176 257.672 270.168 257.32 271.384 257.32H294.136C301.24 257.32 306.744 259.048 310.648 262.504C314.616 265.96 316.6 270.856 316.6 277.192C316.6 283.528 314.616 288.456 310.648 291.976C306.68 295.496 301.176 297.256 294.136 297.256H275.224V321.448C275.224 322.664 274.872 323.656 274.168 324.424C273.464 325.128 272.504 325.48 271.288 325.48ZM293.368 290.728C303.672 290.728 308.824 286.216 308.824 277.192C308.824 268.296 303.672 263.848 293.368 263.848H275.224V290.728H293.368ZM350.274 277.288C352.962 277.096 354.306 278.184 354.306 280.552C354.306 281.576 354.018 282.408 353.442 283.048C352.866 283.624 351.874 283.976 350.466 284.104L347.586 284.392C343.298 284.776 340.098 286.312 337.986 289C335.938 291.624 334.914 294.728 334.914 298.312V321.64C334.914 322.92 334.562 323.88 333.858 324.52C333.154 325.16 332.226 325.48 331.074 325.48C329.922 325.48 328.962 325.16 328.194 324.52C327.49 323.816 327.138 322.856 327.138 321.64V281.128C327.138 279.912 327.522 278.984 328.29 278.344C329.058 277.64 329.986 277.288 331.074 277.288C332.098 277.288 332.962 277.64 333.666 278.344C334.37 278.984 334.722 279.88 334.722 281.032V286.408C336.066 283.592 337.954 281.448 340.386 279.976C342.882 278.504 345.73 277.64 348.93 277.384L350.274 277.288ZM379.436 325.672C375.02 325.672 371.116 324.68 367.724 322.696C364.396 320.712 361.804 317.896 359.948 314.248C358.156 310.536 357.26 306.248 357.26 301.384C357.26 296.52 358.156 292.264 359.948 288.616C361.804 284.904 364.396 282.056 367.724 280.072C371.116 278.088 375.02 277.096 379.436 277.096C383.852 277.096 387.756 278.088 391.148 280.072C394.54 282.056 397.132 284.904 398.924 288.616C400.78 292.264 401.708 296.52 401.708 301.384C401.708 306.248 400.78 310.536 398.924 314.248C397.132 317.896 394.54 320.712 391.148 322.696C387.756 324.68 383.852 325.672 379.436 325.672ZM379.436 319.24C384.044 319.24 387.564 317.736 389.996 314.728C392.492 311.656 393.74 307.208 393.74 301.384C393.74 295.688 392.492 291.304 389.996 288.232C387.5 285.096 383.98 283.528 379.436 283.528C374.892 283.528 371.372 285.096 368.876 288.232C366.38 291.304 365.132 295.688 365.132 301.384C365.132 307.144 366.348 311.56 368.78 314.632C371.276 317.704 374.828 319.24 379.436 319.24ZM465.326 277.096C475.694 277.096 480.878 283.272 480.878 295.624V321.64C480.878 322.856 480.526 323.816 479.822 324.52C479.118 325.16 478.19 325.48 477.038 325.48C475.886 325.48 474.926 325.16 474.158 324.52C473.454 323.816 473.102 322.856 473.102 321.64V295.816C473.102 291.528 472.334 288.424 470.798 286.504C469.262 284.584 466.862 283.624 463.598 283.624C459.694 283.624 456.622 284.936 454.382 287.56C452.142 290.184 451.022 293.736 451.022 298.216V321.64C451.022 322.856 450.638 323.816 449.87 324.52C449.166 325.16 448.238 325.48 447.086 325.48C445.934 325.48 445.006 325.16 444.302 324.52C443.598 323.816 443.246 322.856 443.246 321.64V295.816C443.246 291.528 442.478 288.424 440.942 286.504C439.406 284.584 436.974 283.624 433.646 283.624C429.806 283.624 426.734 284.936 424.43 287.56C422.19 290.184 421.07 293.736 421.07 298.216V321.64C421.07 322.856 420.718 323.816 420.014 324.52C419.31 325.16 418.382 325.48 417.23 325.48C416.078 325.48 415.118 325.16 414.35 324.52C413.646 323.816 413.294 322.856 413.294 321.64V281.128C413.294 279.976 413.646 279.048 414.35 278.344C415.118 277.64 416.078 277.288 417.23 277.288C418.318 277.288 419.214 277.64 419.918 278.344C420.622 278.984 420.974 279.88 420.974 281.032V285.64C422.382 282.888 424.334 280.776 426.83 279.304C429.326 277.832 432.206 277.096 435.47 277.096C442.766 277.096 447.534 280.168 449.774 286.312C451.118 283.496 453.166 281.256 455.918 279.592C458.67 277.928 461.806 277.096 465.326 277.096ZM514.436 325.672C510.02 325.672 506.116 324.68 502.724 322.696C499.396 320.712 496.804 317.896 494.948 314.248C493.156 310.536 492.26 306.248 492.26 301.384C492.26 296.52 493.156 292.264 494.948 288.616C496.804 284.904 499.396 282.056 502.724 280.072C506.116 278.088 510.02 277.096 514.436 277.096C518.852 277.096 522.756 278.088 526.148 280.072C529.54 282.056 532.132 284.904 533.924 288.616C535.78 292.264 536.708 296.52 536.708 301.384C536.708 306.248 535.78 310.536 533.924 314.248C532.132 317.896 529.54 320.712 526.148 322.696C522.756 324.68 518.852 325.672 514.436 325.672ZM514.436 319.24C519.044 319.24 522.564 317.736 524.996 314.728C527.492 311.656 528.74 307.208 528.74 301.384C528.74 295.688 527.492 291.304 524.996 288.232C522.5 285.096 518.98 283.528 514.436 283.528C509.892 283.528 506.372 285.096 503.876 288.232C501.38 291.304 500.132 295.688 500.132 301.384C500.132 307.144 501.348 311.56 503.78 314.632C506.276 317.704 509.828 319.24 514.436 319.24ZM582.374 314.056C583.078 314.056 583.654 314.344 584.102 314.92C584.614 315.496 584.87 316.232 584.87 317.128C584.87 317.96 584.646 318.728 584.198 319.432C583.75 320.072 582.918 320.808 581.702 321.64C580.102 322.728 578.182 323.624 575.942 324.328C573.766 325.032 571.558 325.448 569.318 325.576L568.934 329.224C569.702 329.032 570.534 328.936 571.43 328.936C573.414 328.936 575.078 329.48 576.422 330.568C577.83 331.72 578.534 333.384 578.534 335.56C578.534 337.928 577.542 339.848 575.558 341.32C573.574 342.792 570.79 343.528 567.206 343.528C564.902 343.528 562.726 343.144 560.678 342.376C560.166 342.184 559.75 341.864 559.43 341.416C559.174 341.032 559.046 340.616 559.046 340.168C559.046 339.592 559.238 339.08 559.622 338.632C560.006 338.248 560.518 338.056 561.158 338.056C561.478 338.056 561.734 338.088 561.926 338.152C563.654 338.664 565.446 338.92 567.302 338.92C569.094 338.92 570.438 338.632 571.334 338.056C572.294 337.48 572.774 336.648 572.774 335.56C572.774 334.728 572.518 334.088 572.006 333.64C571.494 333.192 570.758 332.968 569.798 332.968C569.094 332.968 568.198 333.096 567.11 333.352C566.022 333.672 565.35 333.832 565.094 333.832C564.582 333.832 564.102 333.64 563.654 333.256C563.27 332.936 563.11 332.52 563.174 332.008L563.942 325.384C558.31 324.616 553.83 322.12 550.502 317.896C547.174 313.608 545.51 308.168 545.51 301.576C545.51 296.776 546.438 292.52 548.294 288.808C550.214 285.096 552.87 282.216 556.262 280.168C559.654 278.12 563.558 277.096 567.974 277.096C570.406 277.096 572.806 277.448 575.174 278.152C577.606 278.792 579.718 279.752 581.51 281.032C582.662 281.8 583.462 282.568 583.91 283.336C584.422 284.04 584.678 284.84 584.678 285.736C584.678 286.632 584.422 287.368 583.91 287.944C583.462 288.52 582.854 288.808 582.086 288.808C581.638 288.808 581.158 288.68 580.646 288.424C580.134 288.168 579.686 287.912 579.302 287.656C578.982 287.4 578.758 287.24 578.63 287.176C576.966 286.088 575.366 285.224 573.83 284.584C572.358 283.944 570.534 283.624 568.358 283.624C563.686 283.624 560.038 285.224 557.414 288.424C554.854 291.56 553.574 295.944 553.574 301.576C553.574 307.208 554.854 311.56 557.414 314.632C560.038 317.704 563.686 319.24 568.358 319.24C570.534 319.24 572.39 318.92 573.926 318.28C575.526 317.64 577.126 316.776 578.726 315.688C579.43 315.24 580.102 314.856 580.742 314.536C581.382 314.216 581.926 314.056 582.374 314.056ZM613.335 277.096C625.047 277.096 630.903 283.24 630.903 295.528V321.64C630.903 322.792 630.551 323.72 629.847 324.424C629.207 325.128 628.311 325.48 627.159 325.48C626.007 325.48 625.079 325.128 624.375 324.424C623.671 323.72 623.319 322.792 623.319 321.64V317.032C622.103 319.784 620.247 321.928 617.751 323.464C615.255 324.936 612.375 325.672 609.111 325.672C606.103 325.672 603.319 325.064 600.759 323.848C598.263 322.632 596.279 320.936 594.807 318.76C593.335 316.584 592.599 314.184 592.599 311.56C592.599 308.04 593.495 305.32 595.287 303.4C597.079 301.416 600.023 300.008 604.119 299.176C608.215 298.28 613.911 297.832 621.207 297.832H623.319V294.664C623.319 290.824 622.519 288.008 620.919 286.216C619.383 284.424 616.855 283.528 613.335 283.528C608.983 283.528 604.567 284.712 600.087 287.08C598.359 288.168 597.143 288.712 596.439 288.712C595.671 288.712 595.031 288.424 594.519 287.848C594.007 287.272 593.751 286.536 593.751 285.64C593.751 284.744 594.007 283.976 594.519 283.336C595.095 282.632 595.991 281.928 597.207 281.224C599.447 279.944 601.975 278.952 604.791 278.248C607.671 277.48 610.519 277.096 613.335 277.096ZM610.167 319.528C614.007 319.528 617.143 318.248 619.575 315.688C622.071 313.064 623.319 309.704 623.319 305.608V302.824H621.591C615.959 302.824 611.671 303.08 608.727 303.592C605.783 304.04 603.671 304.84 602.391 305.992C601.175 307.08 600.567 308.712 600.567 310.888C600.567 313.384 601.463 315.464 603.255 317.128C605.111 318.728 607.415 319.528 610.167 319.528ZM620.151 268.36C618.935 268.36 617.751 268.072 616.599 267.496C615.447 266.92 614.071 266.088 612.471 265C611.063 264.104 609.943 263.464 609.111 263.08C608.279 262.632 607.511 262.408 606.807 262.408C605.719 262.408 604.855 262.696 604.215 263.272C603.639 263.848 603.063 264.648 602.487 265.672C602.039 266.376 601.655 266.92 601.335 267.304C601.015 267.624 600.631 267.784 600.183 267.784C599.607 267.784 599.127 267.56 598.743 267.112C598.359 266.664 598.167 266.088 598.167 265.384C598.167 264.232 598.519 262.952 599.223 261.544C599.927 260.136 600.919 258.92 602.199 257.896C603.479 256.872 604.919 256.36 606.519 256.36C607.735 256.36 608.919 256.648 610.071 257.224C611.223 257.8 612.599 258.632 614.199 259.72C615.607 260.616 616.727 261.288 617.559 261.736C618.391 262.12 619.159 262.312 619.863 262.312C620.887 262.312 621.687 262.024 622.263 261.448C622.903 260.872 623.543 260.072 624.183 259.048C624.631 258.28 625.015 257.736 625.335 257.416C625.655 257.032 626.039 256.84 626.487 256.84C627.063 256.84 627.543 257.096 627.927 257.608C628.311 258.056 628.503 258.632 628.503 259.336C628.503 260.424 628.151 261.704 627.447 263.176C626.743 264.584 625.751 265.8 624.471 266.824C623.191 267.848 621.751 268.36 620.151 268.36ZM664.53 325.672C660.114 325.672 656.21 324.68 652.818 322.696C649.49 320.712 646.898 317.896 645.042 314.248C643.25 310.536 642.354 306.248 642.354 301.384C642.354 296.52 643.25 292.264 645.042 288.616C646.898 284.904 649.49 282.056 652.818 280.072C656.21 278.088 660.114 277.096 664.53 277.096C668.946 277.096 672.85 278.088 676.242 280.072C679.634 282.056 682.226 284.904 684.018 288.616C685.874 292.264 686.802 296.52 686.802 301.384C686.802 306.248 685.874 310.536 684.018 314.248C682.226 317.896 679.634 320.712 676.242 322.696C672.85 324.68 668.946 325.672 664.53 325.672ZM664.53 319.24C669.138 319.24 672.658 317.736 675.09 314.728C677.586 311.656 678.834 307.208 678.834 301.384C678.834 295.688 677.586 291.304 675.09 288.232C672.594 285.096 669.074 283.528 664.53 283.528C659.986 283.528 656.466 285.096 653.97 288.232C651.474 291.304 650.226 295.688 650.226 301.384C650.226 307.144 651.442 311.56 653.874 314.632C656.37 317.704 659.922 319.24 664.53 319.24Z" fill="black" fill-opacity="0.7"/>
</svg>
